{
  "accessors": [
    {
      "bufferView": 2,
      "componentType": 5126,
      "count": 164,
      "max": [
        1.0235270261764526,
        1.0235270261764526,
        59.86335372924805
      ],
      "min": [
        -1.0235270261764526,
        -1.0235270261764526,
        56.43263626098633
      ],
      "type": "VEC3"
    },
    {
      "bufferView": 2,
      "byteOffset": 1968,
      "componentType": 5126,
      "count": 164,
      "max": [
        0.9071353077888489,
        0.9071353077888489,
        0.9857648611068726
      ],
      "min": [
        -0.9071353077888489,
        -0.9071353077888489,
        -0.9729974865913391
      ],
      "type": "VEC3"
    },
    {
      "bufferView": 1,
      "componentType": 5126,
      "count": 164,
      "max": [
        1.0,
        1.0
      ],
      "min": [
        0.0,
        0.0
      ],
      "type": "VEC2"
    },
    {
      "bufferView": 0,
      "componentType": 5125,
      "count": 648,
      "type": "SCALAR"
    },
    {
      "bufferView": 2,
      "byteOffset": 3936,
      "componentType": 5126,
      "count": 2993,
      "max": [
        11.309391975402832,
        12.255197525024414,
        60.751007080078125
      ],
      "min": [
        -8.66792106628418,
        -7.497979164123535,
        0.0
      ],
      "type": "VEC3"
    },
    {
      "bufferView": 2,
      "byteOffset": 39852,
      "componentType": 5126,
      "count": 2993,
      "max": [
        0.9995173811912537,
        0.9985372424125671,
        0.9986648559570313
      ],
      "min": [
        -0.998724102973938,
        -0.9998513460159302,
        -0.9960046410560608
      ],
      "type": "VEC3"
    },
    {
      "bufferView": 1,
      "byteOffset": 1312,
      "componentType": 5126,
      "count": 2993,
      "max": [
        1.0,
        1.0
      ],
      "min": [
        0.0,
        0.0
      ],
      "type": "VEC2"
    },
    {
      "bufferView": 0,
      "byteOffset": 2592,
      "componentType": 5125,
      "count": 11874,
      "type": "SCALAR"
    },
    {
      "bufferView": 2,
      "byteOffset": 75768,
      "componentType": 5126,
      "count": 1584,
      "max": [
        10.371011734008789,
        7.272421836853027,
        57.80278778076172
      ],
      "min": [
        -2.1320319175720215,
        -9.278146743774414,
        44.756221771240234
      ],
      "type": "VEC3"
    },
    {
      "bufferView": 2,
      "byteOffset": 94776,
      "componentType": 5126,
      "count": 1584,
      "max": [
        0.9996827840805054,
        0.9989331364631653,
        0.9972946643829346
      ],
      "min": [
        -0.9970716238021851,
        -0.9978569746017456,
        -0.9999303817749023
      ],
      "type": "VEC3"
    },
    {
      "bufferView": 1,
      "byteOffset": 25256,
      "componentType": 5126,
      "count": 1584,
      "max": [
        1.0,
        1.0
      ],
      "min": [
        0.0,
        0.0
      ],
      "type": "VEC2"
    },
    {
      "bufferView": 0,
      "byteOffset": 50088,
      "componentType": 5125,
      "count": 5184,
      "type": "SCALAR"
    },
    {
      "bufferView": 2,
      "byteOffset": 113784,
      "componentType": 5126,
      "count": 696,
      "max": [
        8.211954116821289,
        5.0353522300720215,
        58.033592224121094
      ],
      "min": [
        2.28603196144104,
        -5.082756042480469,
        45.79378890991211
      ],
      "type": "VEC3"
    },
    {
      "bufferView": 2,
      "byteOffset": 122136,
      "componentType": 5126,
      "count": 696,
      "max": [
        0.9937737584114075,
        0.999064028263092,
        0.9999611377716064
      ],
      "min": [
        -0.9974231123924255,
        -0.9888402223587036,
        -0.999993622303009
      ],
      "type": "VEC3"
    },
    {
      "bufferView": 1,
      "byteOffset": 37928,
      "componentType": 5126,
      "count": 696,
      "max": [
        1.0,
        1.0
      ],
      "min": [
        0.0,
        0.0
      ],
      "type": "VEC2"
    },
    {
      "bufferView": 0,
      "byteOffset": 70824,
      "componentType": 5125,
      "count": 2592,
      "type": "SCALAR"
    }
  ],
  "asset": {
    "extras": {
      "author": "XCL (https://sketchfab.com/xcl839920)",
      "license": "CC-BY-4.0 (http://creativecommons.org/licenses/by/4.0/)",
      "source": "https://sketchfab.com/3d-models/whiterose-d7ce73a9411b46c4a0875f33d4e6545b",
      "title": "Whiterose"
    },
    "generator": "Sketchfab-17.15.0",
    "version": "2.0"
  },
  "bufferViews": [
    {
      "buffer": 0,
      "byteLength": 81192,
      "name": "floatBufferViews",
      "target": 34963
    },
    {
      "buffer": 0,
      "byteLength": 43496,
      "byteOffset": 81192,
      "byteStride": 8,
      "name": "floatBufferViews",
      "target": 34962
    },
    {
      "buffer": 0,
      "byteLength": 130488,
      "byteOffset": 124688,
      "byteStride": 12,
      "name": "floatBufferViews",
      "target": 34962
    }
  ],
  "buffers": [
    {
      "byteLength": 255176,
      "uri": "scene.bin"
    }
  ],
  "materials": [
    {
      "doubleSided": true,
      "name": "pmat1",
      "pbrMetallicRoughness": {
        "baseColorFactor": [
          0.27451,
          0.4,
          0.207843,
          1.0
        ],
        "metallicFactor": 0.0
      }
    },
    {
      "doubleSided": true,
      "name": "pmat35",
      "pbrMetallicRoughness": {
        "baseColorFactor": [
          0.7,
          0.7,
          0.7,
          1.0
        ],
        "metallicFactor": 0.0
      }
    },
    {
      "doubleSided": true,
      "name": "pmat8",
      "pbrMetallicRoughness": {
        "metallicFactor": 0.0
      }
    },
    {
      "doubleSided": true,
      "name": "pmat9",
      "pbrMetallicRoughness": {
        "baseColorFactor": [
          0.976471,
          0.807843,
          0.235294,
          1.0
        ],
        "metallicFactor": 0.0
      }
    }
  ],
  "meshes": [
    {
      "name": "Object_0",
      "primitives": [
        {
          "attributes": {
            "NORMAL": 1,
            "POSITION": 0,
            "TEXCOORD_0": 2
          },
          "indices": 3,
          "material": 1,
          "mode": 4
        }
      ]
    },
    {
      "name": "Object_1",
      "primitives": [
        {
          "attributes": {
            "NORMAL": 5,
            "POSITION": 4,
            "TEXCOORD_0": 6
          },
          "indices": 7,
          "material": 0,
          "mode": 4
        }
      ]
    },
    {
      "name": "Object_2",
      "primitives": [
        {
          "attributes": {
            "NORMAL": 9,
            "POSITION": 8,
            "TEXCOORD_0": 10
          },
          "indices": 11,
          "material": 2,
          "mode": 4
        }
      ]
    },
    {
      "name": "Object_3",
      "primitives": [
        {
          "attributes": {
            "NORMAL": 13,
            "POSITION": 12,
            "TEXCOORD_0": 14
          },
          "indices": 15,
          "material": 3,
          "mode": 4
        }
      ]
    }
  ],
  "nodes": [
    {
      "children": [
        1
      ],
      "matrix": [
        1.0,
        0.0,
        0.0,
        0.0,
        0.0,
        2.220446049250313e-16,
        -1.0,
        0.0,
        0.0,
        1.0,
        2.220446049250313e-16,
        0.0,
        0.0,
        0.0,
        0.0,
        1.0
      ],
      "name": "Sketchfab_model"
    },
    {
      "children": [
        2,
        3,
        4,
        5
      ],
      "name": "whiterose.obj.cleaner.materialmerger.gles"
    },
    {
      "mesh": 0,
      "name": "Object_2"
    },
    {
      "mesh": 1,
      "name": "Object_3"
    },
    {
      "mesh": 2,
      "name": "Object_4"
    },
    {
      "mesh": 3,
      "name": "Object_5"
    }
  ],
  "scene": 0,
  "scenes": [
    {
      "name": "Sketchfab_Scene",
      "nodes": [
        0
      ]
    }
  ]
}
